<?xml version="1.0" encoding="utf-8"?>
<!-- Generator: Adobe Illustrator 15.0.0, SVG Export Plug-In . SVG Version: 6.00 Build 0)  -->
<!DOCTYPE svg PUBLIC "-//W3C//DTD SVG 1.1//EN" "http://www.w3.org/Graphics/SVG/1.1/DTD/svg11.dtd">
<svg version="1.1" id="Слой_1" xmlns="http://www.w3.org/2000/svg" xmlns:xlink="http://www.w3.org/1999/xlink" x="0px" y="0px"
	 width="22.641px" height="22.64px" viewBox="0 0 22.641 22.64" enable-background="new 0 0 22.641 22.64" xml:space="preserve">
<g>
	<defs>
		<rect id="SVGID_1_" y="0" width="22.641" height="22.64"/>
	</defs>
	<clipPath id="SVGID_2_">
		<use xlink:href="#SVGID_1_"  overflow="visible"/>
	</clipPath>
	<path clip-path="url(#SVGID_2_)" d="M11.32,0C5.068,0.002,0.002,5.067,0,11.32c0.002,6.251,5.068,11.318,11.32,11.32
		c6.253-0.002,11.318-5.07,11.32-11.32C22.639,5.067,17.573,0.002,11.32,0 M11.32,19.673c-4.614-0.008-8.345-3.74-8.354-8.353
		c0.009-4.613,3.74-8.347,8.354-8.355c4.613,0.008,8.346,3.742,8.354,8.355C19.666,15.933,15.934,19.665,11.32,19.673 M5.779,5.213
		l4.981,6.738l0.009-0.006c0.205,0.311,0.557,0.521,0.96,0.521c0.229,0,0.44-0.068,0.619-0.185c0.103-0.066,0.19-0.15,0.268-0.244
		l0.107-0.158l3.253-4.789L11.9,9.738L5.779,5.213z"/>
</g>
</svg>
